# xmcd CD database file
#
# Track frame offsets:
#	150
#	19230
#	36682
#	54025
#	76177
#	94392
#	114712
#	131100
#	149432
#	169752
#
# Disc length: 2612 seconds
#
# Revision: 0
# Processed by: cddbd v1.5.1PL0 Copyright (c) Steve Scherf et al.
# Submitted via: CDex 1.51
#
DISCID=8b0a320a
DTITLE=西邑理香 with COMING SOON! - ポピュリスム
DYEAR=1994
DGENRE=Pop
TTITLE0=忘れられたバースデイ
TTITLE1=あなたのいいところ
TTITLE2=好きだから 愛してるから
TTITLE3=マリアになれたら
TTITLE4=迷夢(めいむ)
TTITLE5=100年先もアイ ラヴ ユー
TTITLE6=海より 空より
TTITLE7=心の奥の奥
TTITLE8=miss PARIS〜今はないレストラン〜
TTITLE9=501号室への目覚し時計
EXTD=YEAR: 1994
EXTT0=
EXTT1=
EXTT2=
EXTT3=
EXTT4=
EXTT5=
EXTT6=
EXTT7=
EXTT8=
EXTT9=
PLAYORDER=
